<?xml version="1.0" encoding="UTF-8" standalone="no"?>
<!DOCTYPE svg PUBLIC "-//W3C//DTD SVG 1.1//EN"
 "http://www.w3.org/Graphics/SVG/1.1/DTD/svg11.dtd">
<!-- Generated by graphviz version 2.40.1 (20161225.0304)
 -->
<!-- Title: dependencies Pages: 1 -->
<svg width="1139pt" height="284pt"
 viewBox="0.00 0.00 1139.00 284.00" xmlns="http://www.w3.org/2000/svg" xmlns:xlink="http://www.w3.org/1999/xlink">
<g id="graph0" class="graph" transform="scale(1 1) rotate(0) translate(4 280)">
<title>dependencies</title>
<polygon fill="#ffffff" stroke="transparent" points="-4,4 -4,-280 1135,-280 1135,4 -4,4"/>
<text text-anchor="start" x="544.5091" y="-42.4" font-family="sans-serif" font-weight="bold" font-size="14.00" fill="#000000">Legend</text>
<polygon fill="#ffffb3" stroke="transparent" points="331.5,-10 331.5,-30 351.5,-30 351.5,-10 331.5,-10"/>
<text text-anchor="start" x="355.129" y="-15.4" font-family="sans-serif" font-size="14.00" fill="#000000"> &#160;Declarations</text>
<polygon fill="#8dd3c7" stroke="transparent" points="444.5,-10 444.5,-30 464.5,-30 464.5,-10 444.5,-10"/>
<text text-anchor="start" x="468.2251" y="-15.4" font-family="sans-serif" font-size="14.00" fill="#000000"> &#160;Module</text>
<polygon fill="#80b1d3" stroke="transparent" points="530.5,-10 530.5,-30 550.5,-30 550.5,-10 530.5,-10"/>
<text text-anchor="start" x="554.2812" y="-15.4" font-family="sans-serif" font-size="14.00" fill="#000000"> &#160;Bootstrap</text>
<polygon fill="#fdb462" stroke="transparent" points="627.5,-10 627.5,-30 647.5,-30 647.5,-10 627.5,-10"/>
<text text-anchor="start" x="651.1732" y="-15.4" font-family="sans-serif" font-size="14.00" fill="#000000"> &#160;Providers</text>
<polygon fill="#fb8072" stroke="transparent" points="723.5,-10 723.5,-30 743.5,-30 743.5,-10 723.5,-10"/>
<text text-anchor="start" x="747.2258" y="-15.4" font-family="sans-serif" font-size="14.00" fill="#000000"> &#160;Exports</text>
<g id="clust1" class="cluster">
<title>cluster_CoreModule</title>
<polygon fill="none" stroke="#000000" stroke-dasharray="1,5" points="8,-70 8,-268 1123,-268 1123,-70 8,-70"/>
</g>
<g id="clust2" class="cluster">
<title>cluster_CoreModule_declarations</title>
<polygon fill="none" stroke="#000000" points="673,-78 673,-130 1115,-130 1115,-78 673,-78"/>
</g>
<g id="clust7" class="cluster">
<title>cluster_CoreModule_exports</title>
<polygon fill="none" stroke="#000000" points="327,-208 327,-260 780,-260 780,-208 327,-208"/>
</g>
<g id="clust9" class="cluster">
<title>cluster_CoreModule_providers</title>
<polygon fill="none" stroke="#000000" points="16,-78 16,-130 665,-130 665,-78 16,-78"/>
</g>
<!-- BreadcrumbComponent -->
<g id="node1" class="node">
<title>BreadcrumbComponent</title>
<polygon fill="#ffffb3" stroke="#000000" points="1107.0253,-122 956.9747,-122 956.9747,-86 1107.0253,-86 1107.0253,-122"/>
<text text-anchor="middle" x="1032" y="-99.8" font-family="Times,serif" font-size="14.00" fill="#000000">BreadcrumbComponent</text>
</g>
<!-- CoreModule -->
<g id="node4" class="node">
<title>CoreModule</title>
<polygon fill="#8dd3c7" stroke="#000000" points="580.2619,-187 577.2619,-191 556.2619,-191 553.2619,-187 493.7381,-187 493.7381,-151 580.2619,-151 580.2619,-187"/>
<text text-anchor="middle" x="537" y="-164.8" font-family="Times,serif" font-size="14.00" fill="#000000">CoreModule</text>
</g>
<!-- BreadcrumbComponent&#45;&gt;CoreModule -->
<g id="edge1" class="edge">
<title>BreadcrumbComponent&#45;&gt;CoreModule</title>
<path fill="none" stroke="#000000" d="M1032,-122.1289C1032,-142.5724 1032,-173 1032,-173 1032,-173 590.4941,-173 590.4941,-173"/>
<polygon fill="#000000" stroke="#000000" points="590.4941,-169.5001 580.4941,-173 590.4941,-176.5001 590.4941,-169.5001"/>
</g>
<!-- HeaderComponent -->
<g id="node2" class="node">
<title>HeaderComponent</title>
<polygon fill="#ffffb3" stroke="#000000" points="938.7437,-122 817.2563,-122 817.2563,-86 938.7437,-86 938.7437,-122"/>
<text text-anchor="middle" x="878" y="-99.8" font-family="Times,serif" font-size="14.00" fill="#000000">HeaderComponent</text>
</g>
<!-- HeaderComponent&#45;&gt;CoreModule -->
<g id="edge2" class="edge">
<title>HeaderComponent&#45;&gt;CoreModule</title>
<path fill="none" stroke="#000000" d="M878,-122.2667C878,-140.5552 878,-166 878,-166 878,-166 590.5342,-166 590.5342,-166"/>
<polygon fill="#000000" stroke="#000000" points="590.5343,-162.5001 580.5342,-166 590.5342,-169.5001 590.5343,-162.5001"/>
</g>
<!-- FooterComponent -->
<g id="node3" class="node">
<title>FooterComponent</title>
<polygon fill="#ffffb3" stroke="#000000" points="798.8809,-122 681.1191,-122 681.1191,-86 798.8809,-86 798.8809,-122"/>
<text text-anchor="middle" x="740" y="-99.8" font-family="Times,serif" font-size="14.00" fill="#000000">FooterComponent</text>
</g>
<!-- FooterComponent&#45;&gt;CoreModule -->
<g id="edge3" class="edge">
<title>FooterComponent&#45;&gt;CoreModule</title>
<path fill="none" stroke="#000000" d="M726.536,-122.0091C726.536,-138.0494 726.536,-159 726.536,-159 726.536,-159 590.4834,-159 590.4834,-159"/>
<polygon fill="#000000" stroke="#000000" points="590.4834,-155.5001 580.4834,-159 590.4833,-162.5001 590.4834,-155.5001"/>
</g>
<!-- BreadcrumbComponent  -->
<g id="node5" class="node">
<title>BreadcrumbComponent </title>
<polygon fill="#fb8072" stroke="#000000" points="772.0246,-252 617.9754,-252 617.9754,-216 772.0246,-216 772.0246,-252"/>
<text text-anchor="middle" x="695" y="-229.8" font-family="Times,serif" font-size="14.00" fill="#000000">BreadcrumbComponent </text>
</g>
<!-- CoreModule&#45;&gt;BreadcrumbComponent  -->
<g id="edge4" class="edge">
<title>CoreModule&#45;&gt;BreadcrumbComponent </title>
<path fill="none" stroke="#000000" stroke-dasharray="5,2" d="M580.2983,-180C607.5965,-180 637.7187,-180 637.7187,-180 637.7187,-180 637.7187,-205.7181 637.7187,-205.7181"/>
<polygon fill="#000000" stroke="#000000" points="634.2188,-205.718 637.7187,-215.7181 641.2188,-205.7181 634.2188,-205.718"/>
</g>
<!-- HeaderComponent  -->
<g id="node6" class="node">
<title>HeaderComponent </title>
<polygon fill="#fb8072" stroke="#000000" points="599.7436,-252 474.2564,-252 474.2564,-216 599.7436,-216 599.7436,-252"/>
<text text-anchor="middle" x="537" y="-229.8" font-family="Times,serif" font-size="14.00" fill="#000000">HeaderComponent </text>
</g>
<!-- CoreModule&#45;&gt;HeaderComponent  -->
<g id="edge5" class="edge">
<title>CoreModule&#45;&gt;HeaderComponent </title>
<path fill="none" stroke="#000000" stroke-dasharray="5,2" d="M537,-187.1061C537,-187.1061 537,-205.991 537,-205.991"/>
<polygon fill="#000000" stroke="#000000" points="533.5001,-205.9909 537,-215.991 540.5001,-205.991 533.5001,-205.9909"/>
</g>
<!-- FooterComponent  -->
<g id="node7" class="node">
<title>FooterComponent </title>
<polygon fill="#fb8072" stroke="#000000" points="456.8814,-252 335.1186,-252 335.1186,-216 456.8814,-216 456.8814,-252"/>
<text text-anchor="middle" x="396" y="-229.8" font-family="Times,serif" font-size="14.00" fill="#000000">FooterComponent </text>
</g>
<!-- CoreModule&#45;&gt;FooterComponent  -->
<g id="edge6" class="edge">
<title>CoreModule&#45;&gt;FooterComponent </title>
<path fill="none" stroke="#000000" stroke-dasharray="5,2" d="M493.5558,-180C466.4271,-180 436.6204,-180 436.6204,-180 436.6204,-180 436.6204,-205.7181 436.6204,-205.7181"/>
<polygon fill="#000000" stroke="#000000" points="433.1205,-205.718 436.6204,-215.7181 440.1205,-205.7181 433.1205,-205.718"/>
</g>
<!-- SelectivePreloadingStrategy -->
<g id="node8" class="node">
<title>SelectivePreloadingStrategy</title>
<ellipse fill="#fdb462" stroke="#000000" cx="537" cy="-104" rx="120.3994" ry="18"/>
<text text-anchor="middle" x="537" y="-99.8" font-family="Times,serif" font-size="14.00" fill="#000000">SelectivePreloadingStrategy</text>
</g>
<!-- SelectivePreloadingStrategy&#45;&gt;CoreModule -->
<g id="edge7" class="edge">
<title>SelectivePreloadingStrategy&#45;&gt;CoreModule</title>
<path fill="none" stroke="#000000" d="M537,-122.1061C537,-122.1061 537,-140.991 537,-140.991"/>
<polygon fill="#000000" stroke="#000000" points="533.5001,-140.9909 537,-150.991 540.5001,-140.991 533.5001,-140.9909"/>
</g>
<!-- LogService -->
<g id="node9" class="node">
<title>LogService</title>
<ellipse fill="#fdb462" stroke="#000000" cx="343" cy="-104" rx="55.5966" ry="18"/>
<text text-anchor="middle" x="343" y="-99.8" font-family="Times,serif" font-size="14.00" fill="#000000">LogService</text>
</g>
<!-- LogService&#45;&gt;CoreModule -->
<g id="edge8" class="edge">
<title>LogService&#45;&gt;CoreModule</title>
<path fill="none" stroke="#000000" d="M366.9289,-120.5018C366.9289,-136.7024 366.9289,-159 366.9289,-159 366.9289,-159 483.6438,-159 483.6438,-159"/>
<polygon fill="#000000" stroke="#000000" points="483.6439,-162.5001 493.6438,-159 483.6438,-155.5001 483.6439,-162.5001"/>
</g>
<!-- AuthGuard -->
<g id="node10" class="node">
<title>AuthGuard</title>
<ellipse fill="#fdb462" stroke="#000000" cx="215" cy="-104" rx="54.4566" ry="18"/>
<text text-anchor="middle" x="215" y="-99.8" font-family="Times,serif" font-size="14.00" fill="#000000">AuthGuard</text>
</g>
<!-- AuthGuard&#45;&gt;CoreModule -->
<g id="edge9" class="edge">
<title>AuthGuard&#45;&gt;CoreModule</title>
<path fill="none" stroke="#000000" d="M215,-122.2667C215,-140.5552 215,-166 215,-166 215,-166 483.5736,-166 483.5736,-166"/>
<polygon fill="#000000" stroke="#000000" points="483.5737,-169.5001 493.5736,-166 483.5736,-162.5001 483.5737,-169.5001"/>
</g>
<!-- AuthService -->
<g id="node11" class="node">
<title>AuthService</title>
<ellipse fill="#fdb462" stroke="#000000" cx="83" cy="-104" rx="59.1083" ry="18"/>
<text text-anchor="middle" x="83" y="-99.8" font-family="Times,serif" font-size="14.00" fill="#000000">AuthService</text>
</g>
<!-- AuthService&#45;&gt;CoreModule -->
<g id="edge10" class="edge">
<title>AuthService&#45;&gt;CoreModule</title>
<path fill="none" stroke="#000000" d="M83,-122.1289C83,-142.5724 83,-173 83,-173 83,-173 483.4686,-173 483.4686,-173"/>
<polygon fill="#000000" stroke="#000000" points="483.4686,-176.5001 493.4686,-173 483.4685,-169.5001 483.4686,-176.5001"/>
</g>
</g>
</svg>
