<?xml version="1.0" encoding="UTF-8" standalone="no"?>
<!DOCTYPE svg PUBLIC "-//W3C//DTD SVG 1.1//EN"
 "http://www.w3.org/Graphics/SVG/1.1/DTD/svg11.dtd">
<!-- Generated by graphviz version 2.40.1 (20161225.0304)
 -->
<!-- Title: dependencies Pages: 1 -->
<svg width="504pt" height="284pt"
 viewBox="0.00 0.00 504.00 284.00" xmlns="http://www.w3.org/2000/svg" xmlns:xlink="http://www.w3.org/1999/xlink">
<g id="graph0" class="graph" transform="scale(1 1) rotate(0) translate(4 280)">
<title>dependencies</title>
<polygon fill="#ffffff" stroke="transparent" points="-4,4 -4,-280 500,-280 500,4 -4,4"/>
<text text-anchor="start" x="227.0091" y="-42.4" font-family="sans-serif" font-weight="bold" font-size="14.00" fill="#000000">Legend</text>
<polygon fill="#ffffb3" stroke="transparent" points="14,-10 14,-30 34,-30 34,-10 14,-10"/>
<text text-anchor="start" x="37.629" y="-15.4" font-family="sans-serif" font-size="14.00" fill="#000000"> &#160;Declarations</text>
<polygon fill="#8dd3c7" stroke="transparent" points="127,-10 127,-30 147,-30 147,-10 127,-10"/>
<text text-anchor="start" x="150.7251" y="-15.4" font-family="sans-serif" font-size="14.00" fill="#000000"> &#160;Module</text>
<polygon fill="#80b1d3" stroke="transparent" points="213,-10 213,-30 233,-30 233,-10 213,-10"/>
<text text-anchor="start" x="236.7812" y="-15.4" font-family="sans-serif" font-size="14.00" fill="#000000"> &#160;Bootstrap</text>
<polygon fill="#fdb462" stroke="transparent" points="310,-10 310,-30 330,-30 330,-10 310,-10"/>
<text text-anchor="start" x="333.6732" y="-15.4" font-family="sans-serif" font-size="14.00" fill="#000000"> &#160;Providers</text>
<polygon fill="#fb8072" stroke="transparent" points="406,-10 406,-30 426,-30 426,-10 406,-10"/>
<text text-anchor="start" x="429.7258" y="-15.4" font-family="sans-serif" font-size="14.00" fill="#000000"> &#160;Exports</text>
<g id="clust1" class="cluster">
<title>cluster_SharedModule</title>
<polygon fill="none" stroke="#000000" stroke-dasharray="1,5" points="107,-70 107,-268 389,-268 389,-70 107,-70"/>
</g>
<g id="clust2" class="cluster">
<title>cluster_SharedModule_declarations</title>
<polygon fill="none" stroke="#000000" points="119,-78 119,-130 377,-130 377,-78 119,-78"/>
</g>
<g id="clust6" class="cluster">
<title>cluster_SharedModule_exports</title>
<polygon fill="none" stroke="#000000" points="115,-208 115,-260 381,-260 381,-208 115,-208"/>
</g>
<!-- CarsComponent -->
<g id="node1" class="node">
<title>CarsComponent</title>
<polygon fill="#ffffb3" stroke="#000000" points="369.4888,-122 262.5112,-122 262.5112,-86 369.4888,-86 369.4888,-122"/>
<text text-anchor="middle" x="316" y="-99.8" font-family="Times,serif" font-size="14.00" fill="#000000">CarsComponent</text>
</g>
<!-- SharedModule -->
<g id="node3" class="node">
<title>SharedModule</title>
<polygon fill="#8dd3c7" stroke="#000000" points="236.4231,-187 233.4231,-191 212.4231,-191 209.4231,-187 137.5769,-187 137.5769,-151 236.4231,-151 236.4231,-187"/>
<text text-anchor="middle" x="187" y="-164.8" font-family="Times,serif" font-size="14.00" fill="#000000">SharedModule</text>
</g>
<!-- CarsComponent&#45;&gt;SharedModule -->
<g id="edge1" class="edge">
<title>CarsComponent&#45;&gt;SharedModule</title>
<path fill="none" stroke="#000000" d="M333.9148,-122.0225C333.9148,-139.3734 333.9148,-163 333.9148,-163 333.9148,-163 246.3292,-163 246.3292,-163"/>
<polygon fill="#000000" stroke="#000000" points="246.3292,-159.5001 236.3292,-163 246.3292,-166.5001 246.3292,-159.5001"/>
</g>
<!-- MultiplicadorPipe -->
<g id="node2" class="node">
<title>MultiplicadorPipe</title>
<polygon fill="#ffffb3" stroke="#000000" points="244.8753,-122 127.1247,-122 127.1247,-86 244.8753,-86 244.8753,-122"/>
<text text-anchor="middle" x="186" y="-99.8" font-family="Times,serif" font-size="14.00" fill="#000000">MultiplicadorPipe</text>
</g>
<!-- MultiplicadorPipe&#45;&gt;SharedModule -->
<g id="edge2" class="edge">
<title>MultiplicadorPipe&#45;&gt;SharedModule</title>
<path fill="none" stroke="#000000" d="M187,-122.1061C187,-122.1061 187,-140.991 187,-140.991"/>
<polygon fill="#000000" stroke="#000000" points="183.5001,-140.9909 187,-150.991 190.5001,-140.991 183.5001,-140.9909"/>
</g>
<!-- CarsComponent  -->
<g id="node4" class="node">
<title>CarsComponent </title>
<polygon fill="#fb8072" stroke="#000000" points="373.4899,-252 262.5101,-252 262.5101,-216 373.4899,-216 373.4899,-252"/>
<text text-anchor="middle" x="318" y="-229.8" font-family="Times,serif" font-size="14.00" fill="#000000">CarsComponent </text>
</g>
<!-- SharedModule&#45;&gt;CarsComponent  -->
<g id="edge3" class="edge">
<title>SharedModule&#45;&gt;CarsComponent </title>
<path fill="none" stroke="#000000" stroke-dasharray="5,2" d="M236.4816,-175C266.2165,-175 298.3352,-175 298.3352,-175 298.3352,-175 298.3352,-205.9775 298.3352,-205.9775"/>
<polygon fill="#000000" stroke="#000000" points="294.8353,-205.9774 298.3352,-215.9775 301.8353,-205.9775 294.8353,-205.9774"/>
</g>
<!-- MultiplicadorPipe  -->
<g id="node5" class="node">
<title>MultiplicadorPipe </title>
<polygon fill="#fb8072" stroke="#000000" points="244.8758,-252 123.1242,-252 123.1242,-216 244.8758,-216 244.8758,-252"/>
<text text-anchor="middle" x="184" y="-229.8" font-family="Times,serif" font-size="14.00" fill="#000000">MultiplicadorPipe </text>
</g>
<!-- SharedModule&#45;&gt;MultiplicadorPipe  -->
<g id="edge4" class="edge">
<title>SharedModule&#45;&gt;MultiplicadorPipe </title>
<path fill="none" stroke="#000000" stroke-dasharray="5,2" d="M187,-187.1061C187,-187.1061 187,-205.991 187,-205.991"/>
<polygon fill="#000000" stroke="#000000" points="183.5001,-205.9909 187,-215.991 190.5001,-205.991 183.5001,-205.9909"/>
</g>
</g>
</svg>
