<?xml version="1.0" encoding="UTF-8" standalone="no"?>
<!DOCTYPE svg PUBLIC "-//W3C//DTD SVG 1.1//EN"
 "http://www.w3.org/Graphics/SVG/1.1/DTD/svg11.dtd">
<!-- Generated by graphviz version 2.40.1 (20161225.0304)
 -->
<!-- Title: dependencies Pages: 1 -->
<svg width="1111pt" height="211pt"
 viewBox="0.00 0.00 1111.00 211.00" xmlns="http://www.w3.org/2000/svg" xmlns:xlink="http://www.w3.org/1999/xlink">
<g id="graph0" class="graph" transform="scale(1 1) rotate(0) translate(4 207)">
<title>dependencies</title>
<polygon fill="#ffffff" stroke="transparent" points="-4,4 -4,-207 1107,-207 1107,4 -4,4"/>
<text text-anchor="start" x="530.5091" y="-42.4" font-family="sans-serif" font-weight="bold" font-size="14.00" fill="#000000">Legend</text>
<polygon fill="#ffffb3" stroke="transparent" points="317.5,-10 317.5,-30 337.5,-30 337.5,-10 317.5,-10"/>
<text text-anchor="start" x="341.129" y="-15.4" font-family="sans-serif" font-size="14.00" fill="#000000"> &#160;Declarations</text>
<polygon fill="#8dd3c7" stroke="transparent" points="430.5,-10 430.5,-30 450.5,-30 450.5,-10 430.5,-10"/>
<text text-anchor="start" x="454.2251" y="-15.4" font-family="sans-serif" font-size="14.00" fill="#000000"> &#160;Module</text>
<polygon fill="#80b1d3" stroke="transparent" points="516.5,-10 516.5,-30 536.5,-30 536.5,-10 516.5,-10"/>
<text text-anchor="start" x="540.2812" y="-15.4" font-family="sans-serif" font-size="14.00" fill="#000000"> &#160;Bootstrap</text>
<polygon fill="#fdb462" stroke="transparent" points="613.5,-10 613.5,-30 633.5,-30 633.5,-10 613.5,-10"/>
<text text-anchor="start" x="637.1732" y="-15.4" font-family="sans-serif" font-size="14.00" fill="#000000"> &#160;Providers</text>
<polygon fill="#fb8072" stroke="transparent" points="709.5,-10 709.5,-30 729.5,-30 729.5,-10 709.5,-10"/>
<text text-anchor="start" x="733.2258" y="-15.4" font-family="sans-serif" font-size="14.00" fill="#000000"> &#160;Exports</text>
<g id="clust1" class="cluster">
<title>cluster_DirectivasModule</title>
<polygon fill="none" stroke="#000000" stroke-dasharray="1,5" points="8,-70 8,-195 1095,-195 1095,-70 8,-70"/>
</g>
<g id="clust2" class="cluster">
<title>cluster_DirectivasModule_declarations</title>
<polygon fill="none" stroke="#000000" points="202,-78 202,-130 1087,-130 1087,-78 202,-78"/>
</g>
<g id="clust9" class="cluster">
<title>cluster_DirectivasModule_imports</title>
<polygon fill="none" stroke="#000000" points="16,-78 16,-130 194,-130 194,-78 16,-78"/>
</g>
<!-- DirectivasComponent -->
<g id="node1" class="node">
<title>DirectivasComponent</title>
<polygon fill="#ffffb3" stroke="#000000" points="1079.3599,-122 940.6401,-122 940.6401,-86 1079.3599,-86 1079.3599,-122"/>
<text text-anchor="middle" x="1010" y="-99.8" font-family="Times,serif" font-size="14.00" fill="#000000">DirectivasComponent</text>
</g>
<!-- DirectivasModule -->
<g id="node7" class="node">
<title>DirectivasModule</title>
<polygon fill="#8dd3c7" stroke="#000000" points="607.5772,-187 604.5772,-191 583.5772,-191 580.5772,-187 490.4228,-187 490.4228,-151 607.5772,-151 607.5772,-187"/>
<text text-anchor="middle" x="549" y="-164.8" font-family="Times,serif" font-size="14.00" fill="#000000">DirectivasModule</text>
</g>
<!-- DirectivasComponent&#45;&gt;DirectivasModule -->
<g id="edge1" class="edge">
<title>DirectivasComponent&#45;&gt;DirectivasModule</title>
<path fill="none" stroke="#000000" d="M1010,-122.2921C1010,-144.2057 1010,-178 1010,-178 1010,-178 617.8542,-178 617.8542,-178"/>
<polygon fill="#000000" stroke="#000000" points="617.8543,-174.5001 607.8542,-178 617.8542,-181.5001 617.8543,-174.5001"/>
</g>
<!-- EstructuralesComponent -->
<g id="node2" class="node">
<title>EstructuralesComponent</title>
<polygon fill="#ffffb3" stroke="#000000" points="922.4115,-122 767.5885,-122 767.5885,-86 922.4115,-86 922.4115,-122"/>
<text text-anchor="middle" x="845" y="-99.8" font-family="Times,serif" font-size="14.00" fill="#000000">EstructuralesComponent</text>
</g>
<!-- EstructuralesComponent&#45;&gt;DirectivasModule -->
<g id="edge2" class="edge">
<title>EstructuralesComponent&#45;&gt;DirectivasModule</title>
<path fill="none" stroke="#000000" d="M845,-122.1061C845,-141.3391 845,-169 845,-169 845,-169 617.834,-169 617.834,-169"/>
<polygon fill="#000000" stroke="#000000" points="617.834,-165.5001 607.834,-169 617.8339,-172.5001 617.834,-165.5001"/>
</g>
<!-- AtributoComponent -->
<g id="node3" class="node">
<title>AtributoComponent</title>
<polygon fill="#ffffb3" stroke="#000000" points="749.2716,-122 620.7284,-122 620.7284,-86 749.2716,-86 749.2716,-122"/>
<text text-anchor="middle" x="685" y="-99.8" font-family="Times,serif" font-size="14.00" fill="#000000">AtributoComponent</text>
</g>
<!-- AtributoComponent&#45;&gt;DirectivasModule -->
<g id="edge3" class="edge">
<title>AtributoComponent&#45;&gt;DirectivasModule</title>
<path fill="none" stroke="#000000" d="M685,-122.027C685,-138.3976 685,-160 685,-160 685,-160 617.8606,-160 617.8606,-160"/>
<polygon fill="#000000" stroke="#000000" points="617.8606,-156.5001 607.8606,-160 617.8606,-163.5001 617.8606,-156.5001"/>
</g>
<!-- NgifComponent -->
<g id="node4" class="node">
<title>NgifComponent</title>
<polygon fill="#ffffb3" stroke="#000000" points="602.4902,-122 495.5098,-122 495.5098,-86 602.4902,-86 602.4902,-122"/>
<text text-anchor="middle" x="549" y="-99.8" font-family="Times,serif" font-size="14.00" fill="#000000">NgifComponent</text>
</g>
<!-- NgifComponent&#45;&gt;DirectivasModule -->
<g id="edge4" class="edge">
<title>NgifComponent&#45;&gt;DirectivasModule</title>
<path fill="none" stroke="#000000" d="M549,-122.1061C549,-122.1061 549,-140.991 549,-140.991"/>
<polygon fill="#000000" stroke="#000000" points="545.5001,-140.9909 549,-150.991 552.5001,-140.991 545.5001,-140.9909"/>
</g>
<!-- NgforComponent -->
<g id="node5" class="node">
<title>NgforComponent</title>
<polygon fill="#ffffb3" stroke="#000000" points="477.2605,-122 362.7395,-122 362.7395,-86 477.2605,-86 477.2605,-122"/>
<text text-anchor="middle" x="420" y="-99.8" font-family="Times,serif" font-size="14.00" fill="#000000">NgforComponent</text>
</g>
<!-- NgforComponent&#45;&gt;DirectivasModule -->
<g id="edge5" class="edge">
<title>NgforComponent&#45;&gt;DirectivasModule</title>
<path fill="none" stroke="#000000" d="M420,-122.027C420,-138.3976 420,-160 420,-160 420,-160 480.1625,-160 480.1625,-160"/>
<polygon fill="#000000" stroke="#000000" points="480.1625,-163.5001 490.1625,-160 480.1624,-156.5001 480.1625,-163.5001"/>
</g>
<!-- NgswitchComponent -->
<g id="node6" class="node">
<title>NgswitchComponent</title>
<polygon fill="#ffffb3" stroke="#000000" points="344.486,-122 209.514,-122 209.514,-86 344.486,-86 344.486,-122"/>
<text text-anchor="middle" x="277" y="-99.8" font-family="Times,serif" font-size="14.00" fill="#000000">NgswitchComponent</text>
</g>
<!-- NgswitchComponent&#45;&gt;DirectivasModule -->
<g id="edge6" class="edge">
<title>NgswitchComponent&#45;&gt;DirectivasModule</title>
<path fill="none" stroke="#000000" d="M277,-122.1061C277,-141.3391 277,-169 277,-169 277,-169 480.3149,-169 480.3149,-169"/>
<polygon fill="#000000" stroke="#000000" points="480.315,-172.5001 490.3149,-169 480.3149,-165.5001 480.315,-172.5001"/>
</g>
<!-- DirectivasRoutingModule -->
<g id="node8" class="node">
<title>DirectivasRoutingModule</title>
<polygon fill="#8dd3c7" stroke="#000000" points="186.1951,-122 183.1951,-126 162.1951,-126 159.1951,-122 23.8049,-122 23.8049,-86 186.1951,-86 186.1951,-122"/>
<text text-anchor="middle" x="105" y="-99.8" font-family="Times,serif" font-size="14.00" fill="#000000">DirectivasRoutingModule</text>
</g>
<!-- DirectivasRoutingModule&#45;&gt;DirectivasModule -->
<g id="edge7" class="edge">
<title>DirectivasRoutingModule&#45;&gt;DirectivasModule</title>
<path fill="none" stroke="#000000" d="M105,-122.2921C105,-144.2057 105,-178 105,-178 105,-178 480.0402,-178 480.0402,-178"/>
<polygon fill="#000000" stroke="#000000" points="480.0403,-181.5001 490.0402,-178 480.0402,-174.5001 480.0403,-181.5001"/>
</g>
</g>
</svg>
