<?xml version="1.0" encoding="UTF-8" standalone="no"?>
<!DOCTYPE svg PUBLIC "-//W3C//DTD SVG 1.1//EN"
 "http://www.w3.org/Graphics/SVG/1.1/DTD/svg11.dtd">
<!-- Generated by graphviz version 2.40.1 (20161225.0304)
 -->
<!-- Title: dependencies Pages: 1 -->
<svg width="1035pt" height="284pt"
 viewBox="0.00 0.00 1035.00 284.00" xmlns="http://www.w3.org/2000/svg" xmlns:xlink="http://www.w3.org/1999/xlink">
<g id="graph0" class="graph" transform="scale(1 1) rotate(0) translate(4 280)">
<title>dependencies</title>
<polygon fill="#ffffff" stroke="transparent" points="-4,4 -4,-280 1031,-280 1031,4 -4,4"/>
<text text-anchor="start" x="492.5091" y="-42.4" font-family="sans-serif" font-weight="bold" font-size="14.00" fill="#000000">Legend</text>
<polygon fill="#ffffb3" stroke="transparent" points="279.5,-10 279.5,-30 299.5,-30 299.5,-10 279.5,-10"/>
<text text-anchor="start" x="303.129" y="-15.4" font-family="sans-serif" font-size="14.00" fill="#000000"> &#160;Declarations</text>
<polygon fill="#8dd3c7" stroke="transparent" points="392.5,-10 392.5,-30 412.5,-30 412.5,-10 392.5,-10"/>
<text text-anchor="start" x="416.2251" y="-15.4" font-family="sans-serif" font-size="14.00" fill="#000000"> &#160;Module</text>
<polygon fill="#80b1d3" stroke="transparent" points="478.5,-10 478.5,-30 498.5,-30 498.5,-10 478.5,-10"/>
<text text-anchor="start" x="502.2812" y="-15.4" font-family="sans-serif" font-size="14.00" fill="#000000"> &#160;Bootstrap</text>
<polygon fill="#fdb462" stroke="transparent" points="575.5,-10 575.5,-30 595.5,-30 595.5,-10 575.5,-10"/>
<text text-anchor="start" x="599.1732" y="-15.4" font-family="sans-serif" font-size="14.00" fill="#000000"> &#160;Providers</text>
<polygon fill="#fb8072" stroke="transparent" points="671.5,-10 671.5,-30 691.5,-30 691.5,-10 671.5,-10"/>
<text text-anchor="start" x="695.2258" y="-15.4" font-family="sans-serif" font-size="14.00" fill="#000000"> &#160;Exports</text>
<g id="clust1" class="cluster">
<title>cluster_AppModule</title>
<polygon fill="none" stroke="#000000" stroke-dasharray="1,5" points="8,-70 8,-268 1019,-268 1019,-70 8,-70"/>
</g>
<g id="clust2" class="cluster">
<title>cluster_AppModule_declarations</title>
<polygon fill="none" stroke="#000000" points="273,-78 273,-130 1011,-130 1011,-78 273,-78"/>
</g>
<g id="clust8" class="cluster">
<title>cluster_AppModule_imports</title>
<polygon fill="none" stroke="#000000" points="16,-78 16,-130 265,-130 265,-78 16,-78"/>
</g>
<g id="clust10" class="cluster">
<title>cluster_AppModule_bootstrap</title>
<polygon fill="none" stroke="#000000" points="478,-208 478,-260 602,-260 602,-208 478,-208"/>
</g>
<!-- AppComponent -->
<g id="node1" class="node">
<title>AppComponent</title>
<polygon fill="#ffffb3" stroke="#000000" points="1002.9399,-122 897.0601,-122 897.0601,-86 1002.9399,-86 1002.9399,-122"/>
<text text-anchor="middle" x="950" y="-99.8" font-family="Times,serif" font-size="14.00" fill="#000000">AppComponent</text>
</g>
<!-- AppModule -->
<g id="node6" class="node">
<title>AppModule</title>
<polygon fill="#8dd3c7" stroke="#000000" points="581.6571,-187 578.6571,-191 557.6571,-191 554.6571,-187 498.3429,-187 498.3429,-151 581.6571,-151 581.6571,-187"/>
<text text-anchor="middle" x="540" y="-164.8" font-family="Times,serif" font-size="14.00" fill="#000000">AppModule</text>
</g>
<!-- AppComponent&#45;&gt;AppModule -->
<g id="edge1" class="edge">
<title>AppComponent&#45;&gt;AppModule</title>
<path fill="none" stroke="#000000" d="M950,-122.2921C950,-144.2057 950,-178 950,-178 950,-178 591.9504,-178 591.9504,-178"/>
<polygon fill="#000000" stroke="#000000" points="591.9504,-174.5001 581.9504,-178 591.9504,-181.5001 591.9504,-174.5001"/>
</g>
<!-- FormComponent -->
<g id="node2" class="node">
<title>FormComponent</title>
<polygon fill="#ffffb3" stroke="#000000" points="878.6667,-122 767.3333,-122 767.3333,-86 878.6667,-86 878.6667,-122"/>
<text text-anchor="middle" x="823" y="-99.8" font-family="Times,serif" font-size="14.00" fill="#000000">FormComponent</text>
</g>
<!-- FormComponent&#45;&gt;AppModule -->
<g id="edge2" class="edge">
<title>FormComponent&#45;&gt;AppModule</title>
<path fill="none" stroke="#000000" d="M823,-122.1061C823,-141.3391 823,-169 823,-169 823,-169 591.7576,-169 591.7576,-169"/>
<polygon fill="#000000" stroke="#000000" points="591.7577,-165.5001 581.7576,-169 591.7576,-172.5001 591.7577,-165.5001"/>
</g>
<!-- HomeComponent -->
<g id="node3" class="node">
<title>HomeComponent</title>
<polygon fill="#ffffb3" stroke="#000000" points="748.5451,-122 633.4549,-122 633.4549,-86 748.5451,-86 748.5451,-122"/>
<text text-anchor="middle" x="691" y="-99.8" font-family="Times,serif" font-size="14.00" fill="#000000">HomeComponent</text>
</g>
<!-- HomeComponent&#45;&gt;AppModule -->
<g id="edge3" class="edge">
<title>HomeComponent&#45;&gt;AppModule</title>
<path fill="none" stroke="#000000" d="M691,-122.027C691,-138.3976 691,-160 691,-160 691,-160 591.6611,-160 591.6611,-160"/>
<polygon fill="#000000" stroke="#000000" points="591.6612,-156.5001 581.6611,-160 591.6611,-163.5001 591.6612,-156.5001"/>
</g>
<!-- ShadowdomComponent -->
<g id="node4" class="node">
<title>ShadowdomComponent</title>
<polygon fill="#ffffb3" stroke="#000000" points="615.8272,-122 464.1728,-122 464.1728,-86 615.8272,-86 615.8272,-122"/>
<text text-anchor="middle" x="540" y="-99.8" font-family="Times,serif" font-size="14.00" fill="#000000">ShadowdomComponent</text>
</g>
<!-- ShadowdomComponent&#45;&gt;AppModule -->
<g id="edge4" class="edge">
<title>ShadowdomComponent&#45;&gt;AppModule</title>
<path fill="none" stroke="#000000" d="M540,-122.1061C540,-122.1061 540,-140.991 540,-140.991"/>
<polygon fill="#000000" stroke="#000000" points="536.5001,-140.9909 540,-150.991 543.5001,-140.991 536.5001,-140.9909"/>
</g>
<!-- PageNotFoundComponent -->
<g id="node5" class="node">
<title>PageNotFoundComponent</title>
<polygon fill="#ffffb3" stroke="#000000" points="446.8243,-122 281.1757,-122 281.1757,-86 446.8243,-86 446.8243,-122"/>
<text text-anchor="middle" x="364" y="-99.8" font-family="Times,serif" font-size="14.00" fill="#000000">PageNotFoundComponent</text>
</g>
<!-- PageNotFoundComponent&#45;&gt;AppModule -->
<g id="edge5" class="edge">
<title>PageNotFoundComponent&#45;&gt;AppModule</title>
<path fill="none" stroke="#000000" d="M364,-122.027C364,-138.3976 364,-160 364,-160 364,-160 488.2905,-160 488.2905,-160"/>
<polygon fill="#000000" stroke="#000000" points="488.2905,-163.5001 498.2905,-160 488.2904,-156.5001 488.2905,-163.5001"/>
</g>
<!-- AppComponent  -->
<g id="node9" class="node">
<title>AppComponent </title>
<polygon fill="#80b1d3" stroke="#000000" points="594.439,-252 485.561,-252 485.561,-216 594.439,-216 594.439,-252"/>
<text text-anchor="middle" x="540" y="-229.8" font-family="Times,serif" font-size="14.00" fill="#000000">AppComponent </text>
</g>
<!-- AppModule&#45;&gt;AppComponent  -->
<g id="edge8" class="edge">
<title>AppModule&#45;&gt;AppComponent </title>
<path fill="none" stroke="#000000" stroke-dasharray="1,5" d="M540,-187.1061C540,-187.1061 540,-205.991 540,-205.991"/>
<polygon fill="#000000" stroke="#000000" points="536.5001,-205.9909 540,-215.991 543.5001,-205.991 536.5001,-205.9909"/>
</g>
<!-- AppRoutingModule -->
<g id="node7" class="node">
<title>AppRoutingModule</title>
<polygon fill="#8dd3c7" stroke="#000000" points="257.2744,-122 254.2744,-126 233.2744,-126 230.2744,-122 128.7256,-122 128.7256,-86 257.2744,-86 257.2744,-122"/>
<text text-anchor="middle" x="193" y="-99.8" font-family="Times,serif" font-size="14.00" fill="#000000">AppRoutingModule</text>
</g>
<!-- AppRoutingModule&#45;&gt;AppModule -->
<g id="edge6" class="edge">
<title>AppRoutingModule&#45;&gt;AppModule</title>
<path fill="none" stroke="#000000" d="M193,-122.1061C193,-141.3391 193,-169 193,-169 193,-169 488.1437,-169 488.1437,-169"/>
<polygon fill="#000000" stroke="#000000" points="488.1437,-172.5001 498.1437,-169 488.1437,-165.5001 488.1437,-172.5001"/>
</g>
<!-- CoreModule -->
<g id="node8" class="node">
<title>CoreModule</title>
<polygon fill="#8dd3c7" stroke="#000000" points="110.2619,-122 107.2619,-126 86.2619,-126 83.2619,-122 23.7381,-122 23.7381,-86 110.2619,-86 110.2619,-122"/>
<text text-anchor="middle" x="67" y="-99.8" font-family="Times,serif" font-size="14.00" fill="#000000">CoreModule</text>
</g>
<!-- CoreModule&#45;&gt;AppModule -->
<g id="edge7" class="edge">
<title>CoreModule&#45;&gt;AppModule</title>
<path fill="none" stroke="#000000" d="M67,-122.2921C67,-144.2057 67,-178 67,-178 67,-178 488.0244,-178 488.0244,-178"/>
<polygon fill="#000000" stroke="#000000" points="488.0244,-181.5001 498.0244,-178 488.0244,-174.5001 488.0244,-181.5001"/>
</g>
</g>
</svg>
