<?xml version="1.0" encoding="UTF-8" standalone="no"?>
<!DOCTYPE svg PUBLIC "-//W3C//DTD SVG 1.1//EN"
 "http://www.w3.org/Graphics/SVG/1.1/DTD/svg11.dtd">
<!-- Generated by graphviz version 2.40.1 (20161225.0304)
 -->
<!-- Title: dependencies Pages: 1 -->
<svg width="830pt" height="211pt"
 viewBox="0.00 0.00 830.00 211.00" xmlns="http://www.w3.org/2000/svg" xmlns:xlink="http://www.w3.org/1999/xlink">
<g id="graph0" class="graph" transform="scale(1 1) rotate(0) translate(4 207)">
<title>dependencies</title>
<polygon fill="#ffffff" stroke="transparent" points="-4,4 -4,-207 826,-207 826,4 -4,4"/>
<text text-anchor="start" x="390.0091" y="-42.4" font-family="sans-serif" font-weight="bold" font-size="14.00" fill="#000000">Legend</text>
<polygon fill="#ffffb3" stroke="transparent" points="177,-10 177,-30 197,-30 197,-10 177,-10"/>
<text text-anchor="start" x="200.629" y="-15.4" font-family="sans-serif" font-size="14.00" fill="#000000"> &#160;Declarations</text>
<polygon fill="#8dd3c7" stroke="transparent" points="290,-10 290,-30 310,-30 310,-10 290,-10"/>
<text text-anchor="start" x="313.7251" y="-15.4" font-family="sans-serif" font-size="14.00" fill="#000000"> &#160;Module</text>
<polygon fill="#80b1d3" stroke="transparent" points="376,-10 376,-30 396,-30 396,-10 376,-10"/>
<text text-anchor="start" x="399.7812" y="-15.4" font-family="sans-serif" font-size="14.00" fill="#000000"> &#160;Bootstrap</text>
<polygon fill="#fdb462" stroke="transparent" points="473,-10 473,-30 493,-30 493,-10 473,-10"/>
<text text-anchor="start" x="496.6732" y="-15.4" font-family="sans-serif" font-size="14.00" fill="#000000"> &#160;Providers</text>
<polygon fill="#fb8072" stroke="transparent" points="569,-10 569,-30 589,-30 589,-10 569,-10"/>
<text text-anchor="start" x="592.7258" y="-15.4" font-family="sans-serif" font-size="14.00" fill="#000000"> &#160;Exports</text>
<g id="clust1" class="cluster">
<title>cluster_PersonModule</title>
<polygon fill="none" stroke="#000000" stroke-dasharray="1,5" points="8,-70 8,-195 814,-195 814,-70 8,-70"/>
</g>
<g id="clust2" class="cluster">
<title>cluster_PersonModule_declarations</title>
<polygon fill="none" stroke="#000000" points="338,-78 338,-130 806,-130 806,-78 338,-78"/>
</g>
<g id="clust6" class="cluster">
<title>cluster_PersonModule_imports</title>
<polygon fill="none" stroke="#000000" points="172,-78 172,-130 330,-130 330,-78 172,-78"/>
</g>
<g id="clust9" class="cluster">
<title>cluster_PersonModule_providers</title>
<polygon fill="none" stroke="#000000" points="16,-78 16,-130 164,-130 164,-78 16,-78"/>
</g>
<!-- PersonComponent -->
<g id="node1" class="node">
<title>PersonComponent</title>
<polygon fill="#ffffb3" stroke="#000000" points="797.9356,-122 678.0644,-122 678.0644,-86 797.9356,-86 797.9356,-122"/>
<text text-anchor="middle" x="738" y="-99.8" font-family="Times,serif" font-size="14.00" fill="#000000">PersonComponent</text>
</g>
<!-- PersonModule -->
<g id="node4" class="node">
<title>PersonModule</title>
<polygon fill="#8dd3c7" stroke="#000000" points="465.6528,-187 462.6528,-191 441.6528,-191 438.6528,-187 368.3472,-187 368.3472,-151 465.6528,-151 465.6528,-187"/>
<text text-anchor="middle" x="417" y="-164.8" font-family="Times,serif" font-size="14.00" fill="#000000">PersonModule</text>
</g>
<!-- PersonComponent&#45;&gt;PersonModule -->
<g id="edge1" class="edge">
<title>PersonComponent&#45;&gt;PersonModule</title>
<path fill="none" stroke="#000000" d="M738,-122.2843C738,-143.3211 738,-175 738,-175 738,-175 475.753,-175 475.753,-175"/>
<polygon fill="#000000" stroke="#000000" points="475.753,-171.5001 465.753,-175 475.753,-178.5001 475.753,-171.5001"/>
</g>
<!-- PersonDetailComponent -->
<g id="node2" class="node">
<title>PersonDetailComponent</title>
<polygon fill="#ffffb3" stroke="#000000" points="659.6428,-122 506.3572,-122 506.3572,-86 659.6428,-86 659.6428,-122"/>
<text text-anchor="middle" x="583" y="-99.8" font-family="Times,serif" font-size="14.00" fill="#000000">PersonDetailComponent</text>
</g>
<!-- PersonDetailComponent&#45;&gt;PersonModule -->
<g id="edge2" class="edge">
<title>PersonDetailComponent&#45;&gt;PersonModule</title>
<path fill="none" stroke="#000000" d="M583,-122.0225C583,-139.3734 583,-163 583,-163 583,-163 475.9076,-163 475.9076,-163"/>
<polygon fill="#000000" stroke="#000000" points="475.9077,-159.5001 465.9076,-163 475.9076,-166.5001 475.9077,-159.5001"/>
</g>
<!-- PersonInfoComponent -->
<g id="node3" class="node">
<title>PersonInfoComponent</title>
<polygon fill="#ffffb3" stroke="#000000" points="488.2562,-122 345.7438,-122 345.7438,-86 488.2562,-86 488.2562,-122"/>
<text text-anchor="middle" x="417" y="-99.8" font-family="Times,serif" font-size="14.00" fill="#000000">PersonInfoComponent</text>
</g>
<!-- PersonInfoComponent&#45;&gt;PersonModule -->
<g id="edge3" class="edge">
<title>PersonInfoComponent&#45;&gt;PersonModule</title>
<path fill="none" stroke="#000000" d="M417,-122.1061C417,-122.1061 417,-140.991 417,-140.991"/>
<polygon fill="#000000" stroke="#000000" points="413.5001,-140.9909 417,-150.991 420.5001,-140.991 413.5001,-140.9909"/>
</g>
<!-- PersonRoutingModule -->
<g id="node5" class="node">
<title>PersonRoutingModule</title>
<polygon fill="#8dd3c7" stroke="#000000" points="322.2702,-122 319.2702,-126 298.2702,-126 295.2702,-122 179.7298,-122 179.7298,-86 322.2702,-86 322.2702,-122"/>
<text text-anchor="middle" x="251" y="-99.8" font-family="Times,serif" font-size="14.00" fill="#000000">PersonRoutingModule</text>
</g>
<!-- PersonRoutingModule&#45;&gt;PersonModule -->
<g id="edge4" class="edge">
<title>PersonRoutingModule&#45;&gt;PersonModule</title>
<path fill="none" stroke="#000000" d="M251,-122.0225C251,-139.3734 251,-163 251,-163 251,-163 358.0924,-163 358.0924,-163"/>
<polygon fill="#000000" stroke="#000000" points="358.0924,-166.5001 368.0924,-163 358.0923,-159.5001 358.0924,-166.5001"/>
</g>
<!-- PersonService -->
<g id="node6" class="node">
<title>PersonService</title>
<ellipse fill="#fdb462" stroke="#000000" cx="90" cy="-104" rx="66.0492" ry="18"/>
<text text-anchor="middle" x="90" y="-99.8" font-family="Times,serif" font-size="14.00" fill="#000000">PersonService</text>
</g>
<!-- PersonService&#45;&gt;PersonModule -->
<g id="edge5" class="edge">
<title>PersonService&#45;&gt;PersonModule</title>
<path fill="none" stroke="#000000" d="M90,-122.2843C90,-143.3211 90,-175 90,-175 90,-175 358.0448,-175 358.0448,-175"/>
<polygon fill="#000000" stroke="#000000" points="358.0448,-178.5001 368.0448,-175 358.0448,-171.5001 358.0448,-178.5001"/>
</g>
</g>
</svg>
