<?xml version="1.0" encoding="UTF-8" standalone="no"?>
<!DOCTYPE svg PUBLIC "-//W3C//DTD SVG 1.1//EN"
 "http://www.w3.org/Graphics/SVG/1.1/DTD/svg11.dtd">
<!-- Generated by graphviz version 2.40.1 (20161225.0304)
 -->
<!-- Title: dependencies Pages: 1 -->
<svg width="4459pt" height="363pt"
 viewBox="0.00 0.00 4459.00 363.00" xmlns="http://www.w3.org/2000/svg" xmlns:xlink="http://www.w3.org/1999/xlink">
<g id="graph0" class="graph" transform="scale(1 1) rotate(0) translate(4 359)">
<title>dependencies</title>
<polygon fill="#ffffff" stroke="transparent" points="-4,4 -4,-359 4455,-359 4455,4 -4,4"/>
<text text-anchor="start" x="2204.5091" y="-42.4" font-family="sans-serif" font-weight="bold" font-size="14.00" fill="#000000">Legend</text>
<polygon fill="#ffffb3" stroke="transparent" points="1991.5,-10 1991.5,-30 2011.5,-30 2011.5,-10 1991.5,-10"/>
<text text-anchor="start" x="2015.129" y="-15.4" font-family="sans-serif" font-size="14.00" fill="#000000"> &#160;Declarations</text>
<polygon fill="#8dd3c7" stroke="transparent" points="2104.5,-10 2104.5,-30 2124.5,-30 2124.5,-10 2104.5,-10"/>
<text text-anchor="start" x="2128.2251" y="-15.4" font-family="sans-serif" font-size="14.00" fill="#000000"> &#160;Module</text>
<polygon fill="#80b1d3" stroke="transparent" points="2190.5,-10 2190.5,-30 2210.5,-30 2210.5,-10 2190.5,-10"/>
<text text-anchor="start" x="2214.2812" y="-15.4" font-family="sans-serif" font-size="14.00" fill="#000000"> &#160;Bootstrap</text>
<polygon fill="#fdb462" stroke="transparent" points="2287.5,-10 2287.5,-30 2307.5,-30 2307.5,-10 2287.5,-10"/>
<text text-anchor="start" x="2311.1732" y="-15.4" font-family="sans-serif" font-size="14.00" fill="#000000"> &#160;Providers</text>
<polygon fill="#fb8072" stroke="transparent" points="2383.5,-10 2383.5,-30 2403.5,-30 2403.5,-10 2383.5,-10"/>
<text text-anchor="start" x="2407.2258" y="-15.4" font-family="sans-serif" font-size="14.00" fill="#000000"> &#160;Exports</text>
<g id="clust1" class="cluster">
<title>cluster_AdminModule</title>
<polygon fill="none" stroke="#000000" stroke-dasharray="1,5" points="8,-70 8,-206 328,-206 328,-70 8,-70"/>
</g>
<g id="clust2" class="cluster">
<title>cluster_AdminModule_declarations</title>
<polygon fill="none" stroke="#000000" points="184,-78 184,-130 320,-130 320,-78 184,-78"/>
</g>
<g id="clust4" class="cluster">
<title>cluster_AdminModule_imports</title>
<polygon fill="none" stroke="#000000" points="16,-78 16,-130 176,-130 176,-78 16,-78"/>
</g>
<g id="clust14" class="cluster">
<title>cluster_AppModule</title>
<polygon fill="none" stroke="#000000" stroke-dasharray="1,5" points="1081,-146 1081,-347 2092,-347 2092,-146 1081,-146"/>
</g>
<g id="clust15" class="cluster">
<title>cluster_AppModule_declarations</title>
<polygon fill="none" stroke="#000000" points="1346,-154 1346,-206 2084,-206 2084,-154 1346,-154"/>
</g>
<g id="clust21" class="cluster">
<title>cluster_AppModule_imports</title>
<polygon fill="none" stroke="#000000" points="1089,-154 1089,-206 1338,-206 1338,-154 1089,-154"/>
</g>
<g id="clust23" class="cluster">
<title>cluster_AppModule_bootstrap</title>
<polygon fill="none" stroke="#000000" points="1551,-287 1551,-339 1675,-339 1675,-287 1551,-287"/>
</g>
<g id="clust31" class="cluster">
<title>cluster_CoreModule</title>
<polygon fill="none" stroke="#000000" stroke-dasharray="1,5" points="336,-70 336,-138 1912,-138 1912,-70 336,-70"/>
</g>
<g id="clust32" class="cluster">
<title>cluster_CoreModule_declarations</title>
<polygon fill="none" stroke="#000000" points="1462,-78 1462,-130 1904,-130 1904,-78 1462,-78"/>
</g>
<g id="clust37" class="cluster">
<title>cluster_CoreModule_exports</title>
<polygon fill="none" stroke="#000000" points="1001,-78 1001,-130 1454,-130 1454,-78 1001,-78"/>
</g>
<g id="clust39" class="cluster">
<title>cluster_CoreModule_providers</title>
<polygon fill="none" stroke="#000000" points="344,-78 344,-130 993,-130 993,-78 344,-78"/>
</g>
<g id="clust40" class="cluster">
<title>cluster_DirectivasModule</title>
<polygon fill="none" stroke="#000000" stroke-dasharray="1,5" points="2100,-70 2100,-206 3187,-206 3187,-70 2100,-70"/>
</g>
<g id="clust41" class="cluster">
<title>cluster_DirectivasModule_declarations</title>
<polygon fill="none" stroke="#000000" points="2294,-78 2294,-130 3179,-130 3179,-78 2294,-78"/>
</g>
<g id="clust48" class="cluster">
<title>cluster_DirectivasModule_imports</title>
<polygon fill="none" stroke="#000000" points="2108,-78 2108,-130 2286,-130 2286,-78 2108,-78"/>
</g>
<g id="clust58" class="cluster">
<title>cluster_PersonModule</title>
<polygon fill="none" stroke="#000000" stroke-dasharray="1,5" points="3195,-70 3195,-206 4001,-206 4001,-70 3195,-70"/>
</g>
<g id="clust59" class="cluster">
<title>cluster_PersonModule_declarations</title>
<polygon fill="none" stroke="#000000" points="3525,-78 3525,-130 3993,-130 3993,-78 3525,-78"/>
</g>
<g id="clust63" class="cluster">
<title>cluster_PersonModule_imports</title>
<polygon fill="none" stroke="#000000" points="3359,-78 3359,-130 3517,-130 3517,-78 3359,-78"/>
</g>
<g id="clust66" class="cluster">
<title>cluster_PersonModule_providers</title>
<polygon fill="none" stroke="#000000" points="3203,-78 3203,-130 3351,-130 3351,-78 3203,-78"/>
</g>
<g id="clust73" class="cluster">
<title>cluster_PipesModule</title>
<polygon fill="none" stroke="#000000" stroke-dasharray="1,5" points="4009,-70 4009,-206 4153,-206 4153,-70 4009,-70"/>
</g>
<g id="clust74" class="cluster">
<title>cluster_PipesModule_declarations</title>
<polygon fill="none" stroke="#000000" points="4017,-78 4017,-130 4145,-130 4145,-78 4017,-78"/>
</g>
<g id="clust86" class="cluster">
<title>cluster_SharedModule</title>
<polygon fill="none" stroke="#000000" stroke-dasharray="1,5" points="4161,-70 4161,-279 4443,-279 4443,-70 4161,-70"/>
</g>
<g id="clust87" class="cluster">
<title>cluster_SharedModule_declarations</title>
<polygon fill="none" stroke="#000000" points="4173,-78 4173,-130 4431,-130 4431,-78 4173,-78"/>
</g>
<g id="clust91" class="cluster">
<title>cluster_SharedModule_exports</title>
<polygon fill="none" stroke="#000000" points="4169,-219 4169,-271 4435,-271 4435,-219 4169,-219"/>
</g>
<!-- AdminComponent -->
<g id="node1" class="node">
<title>AdminComponent</title>
<polygon fill="#ffffb3" stroke="#000000" points="312.2204,-122 191.7796,-122 191.7796,-86 312.2204,-86 312.2204,-122"/>
<text text-anchor="middle" x="252" y="-99.8" font-family="Times,serif" font-size="14.00" fill="#000000">AdminComponent</text>
</g>
<!-- AdminModule -->
<g id="node2" class="node">
<title>AdminModule</title>
<polygon fill="#8dd3c7" stroke="#000000" points="223.4386,-198 220.4386,-202 199.4386,-202 196.4386,-198 124.5614,-198 124.5614,-162 223.4386,-162 223.4386,-198"/>
<text text-anchor="middle" x="174" y="-175.8" font-family="Times,serif" font-size="14.00" fill="#000000">AdminModule</text>
</g>
<!-- AdminComponent&#45;&gt;AdminModule -->
<g id="edge1" class="edge">
<title>AdminComponent&#45;&gt;AdminModule</title>
<path fill="none" stroke="#000000" d="M207.5544,-122.0109C207.5544,-122.0109 207.5544,-151.855 207.5544,-151.855"/>
<polygon fill="#000000" stroke="#000000" points="204.0544,-151.8549 207.5544,-161.855 211.0544,-151.855 204.0544,-151.8549"/>
</g>
<!-- AdminRoutingModule -->
<g id="node3" class="node">
<title>AdminRoutingModule</title>
<polygon fill="#8dd3c7" stroke="#000000" points="167.5561,-122 164.5561,-126 143.5561,-126 140.5561,-122 24.4439,-122 24.4439,-86 167.5561,-86 167.5561,-122"/>
<text text-anchor="middle" x="96" y="-99.8" font-family="Times,serif" font-size="14.00" fill="#000000">AdminRoutingModule</text>
</g>
<!-- AdminRoutingModule&#45;&gt;AdminModule -->
<g id="edge2" class="edge">
<title>AdminRoutingModule&#45;&gt;AdminModule</title>
<path fill="none" stroke="#000000" d="M146.2795,-122.0109C146.2795,-122.0109 146.2795,-151.855 146.2795,-151.855"/>
<polygon fill="#000000" stroke="#000000" points="142.7795,-151.8549 146.2795,-161.855 149.7795,-151.855 142.7795,-151.8549"/>
</g>
<!-- AppComponent -->
<g id="node4" class="node">
<title>AppComponent</title>
<polygon fill="#ffffb3" stroke="#000000" points="2075.9399,-198 1970.0601,-198 1970.0601,-162 2075.9399,-162 2075.9399,-198"/>
<text text-anchor="middle" x="2023" y="-175.8" font-family="Times,serif" font-size="14.00" fill="#000000">AppComponent</text>
</g>
<!-- AppModule -->
<g id="node9" class="node">
<title>AppModule</title>
<polygon fill="#8dd3c7" stroke="#000000" points="1654.6571,-263 1651.6571,-267 1630.6571,-267 1627.6571,-263 1571.3429,-263 1571.3429,-227 1654.6571,-227 1654.6571,-263"/>
<text text-anchor="middle" x="1613" y="-240.8" font-family="Times,serif" font-size="14.00" fill="#000000">AppModule</text>
</g>
<!-- AppComponent&#45;&gt;AppModule -->
<g id="edge3" class="edge">
<title>AppComponent&#45;&gt;AppModule</title>
<path fill="none" stroke="#000000" d="M2023,-198.2921C2023,-220.2057 2023,-254 2023,-254 2023,-254 1664.9504,-254 1664.9504,-254"/>
<polygon fill="#000000" stroke="#000000" points="1664.9504,-250.5001 1654.9504,-254 1664.9504,-257.5001 1664.9504,-250.5001"/>
</g>
<!-- FormComponent -->
<g id="node5" class="node">
<title>FormComponent</title>
<polygon fill="#ffffb3" stroke="#000000" points="1951.6667,-198 1840.3333,-198 1840.3333,-162 1951.6667,-162 1951.6667,-198"/>
<text text-anchor="middle" x="1896" y="-175.8" font-family="Times,serif" font-size="14.00" fill="#000000">FormComponent</text>
</g>
<!-- FormComponent&#45;&gt;AppModule -->
<g id="edge4" class="edge">
<title>FormComponent&#45;&gt;AppModule</title>
<path fill="none" stroke="#000000" d="M1896,-198.1061C1896,-217.3391 1896,-245 1896,-245 1896,-245 1664.7576,-245 1664.7576,-245"/>
<polygon fill="#000000" stroke="#000000" points="1664.7577,-241.5001 1654.7576,-245 1664.7576,-248.5001 1664.7577,-241.5001"/>
</g>
<!-- HomeComponent -->
<g id="node6" class="node">
<title>HomeComponent</title>
<polygon fill="#ffffb3" stroke="#000000" points="1821.5451,-198 1706.4549,-198 1706.4549,-162 1821.5451,-162 1821.5451,-198"/>
<text text-anchor="middle" x="1764" y="-175.8" font-family="Times,serif" font-size="14.00" fill="#000000">HomeComponent</text>
</g>
<!-- HomeComponent&#45;&gt;AppModule -->
<g id="edge5" class="edge">
<title>HomeComponent&#45;&gt;AppModule</title>
<path fill="none" stroke="#000000" d="M1764,-198.027C1764,-214.3976 1764,-236 1764,-236 1764,-236 1664.6611,-236 1664.6611,-236"/>
<polygon fill="#000000" stroke="#000000" points="1664.6612,-232.5001 1654.6611,-236 1664.6611,-239.5001 1664.6612,-232.5001"/>
</g>
<!-- ShadowdomComponent -->
<g id="node7" class="node">
<title>ShadowdomComponent</title>
<polygon fill="#ffffb3" stroke="#000000" points="1688.8272,-198 1537.1728,-198 1537.1728,-162 1688.8272,-162 1688.8272,-198"/>
<text text-anchor="middle" x="1613" y="-175.8" font-family="Times,serif" font-size="14.00" fill="#000000">ShadowdomComponent</text>
</g>
<!-- ShadowdomComponent&#45;&gt;AppModule -->
<g id="edge6" class="edge">
<title>ShadowdomComponent&#45;&gt;AppModule</title>
<path fill="none" stroke="#000000" d="M1613,-198.1061C1613,-198.1061 1613,-216.991 1613,-216.991"/>
<polygon fill="#000000" stroke="#000000" points="1609.5001,-216.9909 1613,-226.991 1616.5001,-216.991 1609.5001,-216.9909"/>
</g>
<!-- PageNotFoundComponent -->
<g id="node8" class="node">
<title>PageNotFoundComponent</title>
<polygon fill="#ffffb3" stroke="#000000" points="1519.8243,-198 1354.1757,-198 1354.1757,-162 1519.8243,-162 1519.8243,-198"/>
<text text-anchor="middle" x="1437" y="-175.8" font-family="Times,serif" font-size="14.00" fill="#000000">PageNotFoundComponent</text>
</g>
<!-- PageNotFoundComponent&#45;&gt;AppModule -->
<g id="edge7" class="edge">
<title>PageNotFoundComponent&#45;&gt;AppModule</title>
<path fill="none" stroke="#000000" d="M1437,-198.027C1437,-214.3976 1437,-236 1437,-236 1437,-236 1561.2905,-236 1561.2905,-236"/>
<polygon fill="#000000" stroke="#000000" points="1561.2905,-239.5001 1571.2905,-236 1561.2904,-232.5001 1561.2905,-239.5001"/>
</g>
<!-- AppComponent  -->
<g id="node12" class="node">
<title>AppComponent </title>
<polygon fill="#80b1d3" stroke="#000000" points="1667.439,-331 1558.561,-331 1558.561,-295 1667.439,-295 1667.439,-331"/>
<text text-anchor="middle" x="1613" y="-308.8" font-family="Times,serif" font-size="14.00" fill="#000000">AppComponent </text>
</g>
<!-- AppModule&#45;&gt;AppComponent  -->
<g id="edge10" class="edge">
<title>AppModule&#45;&gt;AppComponent </title>
<path fill="none" stroke="#000000" stroke-dasharray="1,5" d="M1613,-263.2228C1613,-263.2228 1613,-284.7269 1613,-284.7269"/>
<polygon fill="#000000" stroke="#000000" points="1609.5001,-284.7269 1613,-294.7269 1616.5001,-284.727 1609.5001,-284.7269"/>
</g>
<!-- AppRoutingModule -->
<g id="node10" class="node">
<title>AppRoutingModule</title>
<polygon fill="#8dd3c7" stroke="#000000" points="1330.2744,-198 1327.2744,-202 1306.2744,-202 1303.2744,-198 1201.7256,-198 1201.7256,-162 1330.2744,-162 1330.2744,-198"/>
<text text-anchor="middle" x="1266" y="-175.8" font-family="Times,serif" font-size="14.00" fill="#000000">AppRoutingModule</text>
</g>
<!-- AppRoutingModule&#45;&gt;AppModule -->
<g id="edge8" class="edge">
<title>AppRoutingModule&#45;&gt;AppModule</title>
<path fill="none" stroke="#000000" d="M1266,-198.1061C1266,-217.3391 1266,-245 1266,-245 1266,-245 1561.1437,-245 1561.1437,-245"/>
<polygon fill="#000000" stroke="#000000" points="1561.1437,-248.5001 1571.1437,-245 1561.1437,-241.5001 1561.1437,-248.5001"/>
</g>
<!-- CoreModule -->
<g id="node11" class="node">
<title>CoreModule</title>
<polygon fill="#8dd3c7" stroke="#000000" points="1183.2619,-198 1180.2619,-202 1159.2619,-202 1156.2619,-198 1096.7381,-198 1096.7381,-162 1183.2619,-162 1183.2619,-198"/>
<text text-anchor="middle" x="1140" y="-175.8" font-family="Times,serif" font-size="14.00" fill="#000000">CoreModule</text>
</g>
<!-- CoreModule&#45;&gt;AppModule -->
<g id="edge9" class="edge">
<title>CoreModule&#45;&gt;AppModule</title>
<path fill="none" stroke="#000000" d="M1140,-198.2921C1140,-220.2057 1140,-254 1140,-254 1140,-254 1561.0244,-254 1561.0244,-254"/>
<polygon fill="#000000" stroke="#000000" points="1561.0244,-257.5001 1571.0244,-254 1561.0244,-250.5001 1561.0244,-257.5001"/>
</g>
<!-- BreadcrumbComponent  -->
<g id="node16" class="node">
<title>BreadcrumbComponent </title>
<polygon fill="#fb8072" stroke="#000000" points="1446.0246,-122 1291.9754,-122 1291.9754,-86 1446.0246,-86 1446.0246,-122"/>
<text text-anchor="middle" x="1369" y="-99.8" font-family="Times,serif" font-size="14.00" fill="#000000">BreadcrumbComponent </text>
</g>
<!-- CoreModule&#45;&gt;BreadcrumbComponent  -->
<g id="edge14" class="edge">
<title>CoreModule&#45;&gt;BreadcrumbComponent </title>
<path fill="none" stroke="#000000" stroke-dasharray="5,2" d="M1177.5471,-161.9489C1177.5471,-147.627 1177.5471,-130 1177.5471,-130 1177.5471,-130 1311.1874,-130 1311.1874,-130 1311.1874,-130 1311.1874,-129.2058 1311.1874,-129.2058"/>
<polygon fill="#000000" stroke="#000000" points="1314.6875,-132.0578 1311.1874,-122.0579 1307.6875,-132.0579 1314.6875,-132.0578"/>
</g>
<!-- HeaderComponent  -->
<g id="node17" class="node">
<title>HeaderComponent </title>
<polygon fill="#fb8072" stroke="#000000" points="1273.7436,-122 1148.2564,-122 1148.2564,-86 1273.7436,-86 1273.7436,-122"/>
<text text-anchor="middle" x="1211" y="-99.8" font-family="Times,serif" font-size="14.00" fill="#000000">HeaderComponent </text>
</g>
<!-- CoreModule&#45;&gt;HeaderComponent  -->
<g id="edge15" class="edge">
<title>CoreModule&#45;&gt;HeaderComponent </title>
<path fill="none" stroke="#000000" stroke-dasharray="5,2" d="M1154.2121,-161.9891C1154.2121,-161.9891 1154.2121,-132.145 1154.2121,-132.145"/>
<polygon fill="#000000" stroke="#000000" points="1157.7121,-132.145 1154.2121,-122.145 1150.7121,-132.1451 1157.7121,-132.145"/>
</g>
<!-- FooterComponent  -->
<g id="node18" class="node">
<title>FooterComponent </title>
<polygon fill="#fb8072" stroke="#000000" points="1130.8814,-122 1009.1186,-122 1009.1186,-86 1130.8814,-86 1130.8814,-122"/>
<text text-anchor="middle" x="1070" y="-99.8" font-family="Times,serif" font-size="14.00" fill="#000000">FooterComponent </text>
</g>
<!-- CoreModule&#45;&gt;FooterComponent  -->
<g id="edge16" class="edge">
<title>CoreModule&#45;&gt;FooterComponent </title>
<path fill="none" stroke="#000000" stroke-dasharray="5,2" d="M1113.6548,-161.9891C1113.6548,-161.9891 1113.6548,-132.145 1113.6548,-132.145"/>
<polygon fill="#000000" stroke="#000000" points="1117.1549,-132.145 1113.6548,-122.145 1110.1549,-132.1451 1117.1549,-132.145"/>
</g>
<!-- BreadcrumbComponent -->
<g id="node13" class="node">
<title>BreadcrumbComponent</title>
<polygon fill="#ffffb3" stroke="#000000" points="1896.0253,-122 1745.9747,-122 1745.9747,-86 1896.0253,-86 1896.0253,-122"/>
<text text-anchor="middle" x="1821" y="-99.8" font-family="Times,serif" font-size="14.00" fill="#000000">BreadcrumbComponent</text>
</g>
<!-- BreadcrumbComponent&#45;&gt;CoreModule -->
<g id="edge11" class="edge">
<title>BreadcrumbComponent&#45;&gt;CoreModule</title>
<path fill="none" stroke="#000000" d="M1783.7549,-122.0511C1783.7549,-136.373 1783.7549,-154 1783.7549,-154 1783.7549,-154 1171.7133,-154 1171.7133,-154 1171.7133,-154 1171.7133,-154.7942 1171.7133,-154.7942"/>
<polygon fill="#000000" stroke="#000000" points="1168.2134,-151.9421 1171.7133,-161.9421 1175.2134,-151.9422 1168.2134,-151.9421"/>
</g>
<!-- HeaderComponent -->
<g id="node14" class="node">
<title>HeaderComponent</title>
<polygon fill="#ffffb3" stroke="#000000" points="1727.7437,-122 1606.2563,-122 1606.2563,-86 1727.7437,-86 1727.7437,-122"/>
<text text-anchor="middle" x="1667" y="-99.8" font-family="Times,serif" font-size="14.00" fill="#000000">HeaderComponent</text>
</g>
<!-- HeaderComponent&#45;&gt;CoreModule -->
<g id="edge12" class="edge">
<title>HeaderComponent&#45;&gt;CoreModule</title>
<path fill="none" stroke="#000000" d="M1647.3958,-122.0555C1647.3958,-133.439 1647.3958,-146 1647.3958,-146 1647.3958,-146 1165.8796,-146 1165.8796,-146 1165.8796,-146 1165.8796,-151.8056 1165.8796,-151.8056"/>
<polygon fill="#000000" stroke="#000000" points="1162.3796,-151.8055 1165.8796,-161.8056 1169.3796,-151.8056 1162.3796,-151.8055"/>
</g>
<!-- FooterComponent -->
<g id="node15" class="node">
<title>FooterComponent</title>
<polygon fill="#ffffb3" stroke="#000000" points="1587.8809,-122 1470.1191,-122 1470.1191,-86 1587.8809,-86 1587.8809,-122"/>
<text text-anchor="middle" x="1529" y="-99.8" font-family="Times,serif" font-size="14.00" fill="#000000">FooterComponent</text>
</g>
<!-- FooterComponent&#45;&gt;CoreModule -->
<g id="edge13" class="edge">
<title>FooterComponent&#45;&gt;CoreModule</title>
<path fill="none" stroke="#000000" d="M1494.8608,-122.1944C1494.8608,-130.2782 1494.8608,-138 1494.8608,-138 1494.8608,-138 1160.0458,-138 1160.0458,-138 1160.0458,-138 1160.0458,-151.9445 1160.0458,-151.9445"/>
<polygon fill="#000000" stroke="#000000" points="1156.5459,-151.9444 1160.0458,-161.9445 1163.5459,-151.9445 1156.5459,-151.9444"/>
</g>
<!-- SelectivePreloadingStrategy -->
<g id="node19" class="node">
<title>SelectivePreloadingStrategy</title>
<ellipse fill="#fdb462" stroke="#000000" cx="865" cy="-104" rx="120.3994" ry="18"/>
<text text-anchor="middle" x="865" y="-99.8" font-family="Times,serif" font-size="14.00" fill="#000000">SelectivePreloadingStrategy</text>
</g>
<!-- SelectivePreloadingStrategy&#45;&gt;CoreModule -->
<g id="edge17" class="edge">
<title>SelectivePreloadingStrategy&#45;&gt;CoreModule</title>
<path fill="none" stroke="#000000" d="M865,-122.0348C865,-141.5762 865,-170 865,-170 865,-170 1086.7287,-170 1086.7287,-170"/>
<polygon fill="#000000" stroke="#000000" points="1086.7288,-173.5001 1096.7287,-170 1086.7287,-166.5001 1086.7288,-173.5001"/>
</g>
<!-- LogService -->
<g id="node20" class="node">
<title>LogService</title>
<ellipse fill="#fdb462" stroke="#000000" cx="671" cy="-104" rx="55.5966" ry="18"/>
<text text-anchor="middle" x="671" y="-99.8" font-family="Times,serif" font-size="14.00" fill="#000000">LogService</text>
</g>
<!-- LogService&#45;&gt;CoreModule -->
<g id="edge18" class="edge">
<title>LogService&#45;&gt;CoreModule</title>
<path fill="none" stroke="#000000" d="M671,-122.0449C671,-143.6623 671,-177 671,-177 671,-177 1086.7183,-177 1086.7183,-177"/>
<polygon fill="#000000" stroke="#000000" points="1086.7183,-180.5001 1096.7183,-177 1086.7182,-173.5001 1086.7183,-180.5001"/>
</g>
<!-- AuthGuard -->
<g id="node21" class="node">
<title>AuthGuard</title>
<ellipse fill="#fdb462" stroke="#000000" cx="543" cy="-104" rx="54.4566" ry="18"/>
<text text-anchor="middle" x="543" y="-99.8" font-family="Times,serif" font-size="14.00" fill="#000000">AuthGuard</text>
</g>
<!-- AuthGuard&#45;&gt;CoreModule -->
<g id="edge19" class="edge">
<title>AuthGuard&#45;&gt;CoreModule</title>
<path fill="none" stroke="#000000" d="M543,-122.1532C543,-145.7566 543,-184 543,-184 543,-184 1086.5843,-184 1086.5843,-184"/>
<polygon fill="#000000" stroke="#000000" points="1086.5844,-187.5001 1096.5843,-184 1086.5843,-180.5001 1086.5844,-187.5001"/>
</g>
<!-- AuthService -->
<g id="node22" class="node">
<title>AuthService</title>
<ellipse fill="#fdb462" stroke="#000000" cx="411" cy="-104" rx="59.1083" ry="18"/>
<text text-anchor="middle" x="411" y="-99.8" font-family="Times,serif" font-size="14.00" fill="#000000">AuthService</text>
</g>
<!-- AuthService&#45;&gt;CoreModule -->
<g id="edge20" class="edge">
<title>AuthService&#45;&gt;CoreModule</title>
<path fill="none" stroke="#000000" d="M411,-122.0265C411,-147.5093 411,-191 411,-191 411,-191 1086.5809,-191 1086.5809,-191"/>
<polygon fill="#000000" stroke="#000000" points="1086.5809,-194.5001 1096.5809,-191 1086.5809,-187.5001 1086.5809,-194.5001"/>
</g>
<!-- DirectivasComponent -->
<g id="node23" class="node">
<title>DirectivasComponent</title>
<polygon fill="#ffffb3" stroke="#000000" points="3171.3599,-122 3032.6401,-122 3032.6401,-86 3171.3599,-86 3171.3599,-122"/>
<text text-anchor="middle" x="3102" y="-99.8" font-family="Times,serif" font-size="14.00" fill="#000000">DirectivasComponent</text>
</g>
<!-- DirectivasModule -->
<g id="node29" class="node">
<title>DirectivasModule</title>
<polygon fill="#8dd3c7" stroke="#000000" points="2699.5772,-198 2696.5772,-202 2675.5772,-202 2672.5772,-198 2582.4228,-198 2582.4228,-162 2699.5772,-162 2699.5772,-198"/>
<text text-anchor="middle" x="2641" y="-175.8" font-family="Times,serif" font-size="14.00" fill="#000000">DirectivasModule</text>
</g>
<!-- DirectivasComponent&#45;&gt;DirectivasModule -->
<g id="edge21" class="edge">
<title>DirectivasComponent&#45;&gt;DirectivasModule</title>
<path fill="none" stroke="#000000" d="M3102,-122.2337C3102,-148.0094 3102,-192 3102,-192 3102,-192 2709.8542,-192 2709.8542,-192"/>
<polygon fill="#000000" stroke="#000000" points="2709.8543,-188.5001 2699.8542,-192 2709.8542,-195.5001 2709.8543,-188.5001"/>
</g>
<!-- EstructuralesComponent -->
<g id="node24" class="node">
<title>EstructuralesComponent</title>
<polygon fill="#ffffb3" stroke="#000000" points="3014.4115,-122 2859.5885,-122 2859.5885,-86 3014.4115,-86 3014.4115,-122"/>
<text text-anchor="middle" x="2937" y="-99.8" font-family="Times,serif" font-size="14.00" fill="#000000">EstructuralesComponent</text>
</g>
<!-- EstructuralesComponent&#45;&gt;DirectivasModule -->
<g id="edge22" class="edge">
<title>EstructuralesComponent&#45;&gt;DirectivasModule</title>
<path fill="none" stroke="#000000" d="M2937,-122.1985C2937,-146.3563 2937,-186 2937,-186 2937,-186 2709.834,-186 2709.834,-186"/>
<polygon fill="#000000" stroke="#000000" points="2709.834,-182.5001 2699.834,-186 2709.8339,-189.5001 2709.834,-182.5001"/>
</g>
<!-- AtributoComponent -->
<g id="node25" class="node">
<title>AtributoComponent</title>
<polygon fill="#ffffb3" stroke="#000000" points="2841.2716,-122 2712.7284,-122 2712.7284,-86 2841.2716,-86 2841.2716,-122"/>
<text text-anchor="middle" x="2777" y="-99.8" font-family="Times,serif" font-size="14.00" fill="#000000">AtributoComponent</text>
</g>
<!-- AtributoComponent&#45;&gt;DirectivasModule -->
<g id="edge23" class="edge">
<title>AtributoComponent&#45;&gt;DirectivasModule</title>
<path fill="none" stroke="#000000" d="M2777,-122.0109C2777,-144.4852 2777,-180 2777,-180 2777,-180 2709.8606,-180 2709.8606,-180"/>
<polygon fill="#000000" stroke="#000000" points="2709.8606,-176.5001 2699.8606,-180 2709.8606,-183.5001 2709.8606,-176.5001"/>
</g>
<!-- NgifComponent -->
<g id="node26" class="node">
<title>NgifComponent</title>
<polygon fill="#ffffb3" stroke="#000000" points="2694.4902,-122 2587.5098,-122 2587.5098,-86 2694.4902,-86 2694.4902,-122"/>
<text text-anchor="middle" x="2641" y="-99.8" font-family="Times,serif" font-size="14.00" fill="#000000">NgifComponent</text>
</g>
<!-- NgifComponent&#45;&gt;DirectivasModule -->
<g id="edge24" class="edge">
<title>NgifComponent&#45;&gt;DirectivasModule</title>
<path fill="none" stroke="#000000" d="M2641,-122.0109C2641,-122.0109 2641,-151.855 2641,-151.855"/>
<polygon fill="#000000" stroke="#000000" points="2637.5001,-151.8549 2641,-161.855 2644.5001,-151.855 2637.5001,-151.8549"/>
</g>
<!-- NgforComponent -->
<g id="node27" class="node">
<title>NgforComponent</title>
<polygon fill="#ffffb3" stroke="#000000" points="2569.2605,-122 2454.7395,-122 2454.7395,-86 2569.2605,-86 2569.2605,-122"/>
<text text-anchor="middle" x="2512" y="-99.8" font-family="Times,serif" font-size="14.00" fill="#000000">NgforComponent</text>
</g>
<!-- NgforComponent&#45;&gt;DirectivasModule -->
<g id="edge25" class="edge">
<title>NgforComponent&#45;&gt;DirectivasModule</title>
<path fill="none" stroke="#000000" d="M2512,-122.308C2512,-142.1455 2512,-171 2512,-171 2512,-171 2572.1625,-171 2572.1625,-171"/>
<polygon fill="#000000" stroke="#000000" points="2572.1625,-174.5001 2582.1625,-171 2572.1624,-167.5001 2572.1625,-174.5001"/>
</g>
<!-- NgswitchComponent -->
<g id="node28" class="node">
<title>NgswitchComponent</title>
<polygon fill="#ffffb3" stroke="#000000" points="2436.486,-122 2301.514,-122 2301.514,-86 2436.486,-86 2436.486,-122"/>
<text text-anchor="middle" x="2369" y="-99.8" font-family="Times,serif" font-size="14.00" fill="#000000">NgswitchComponent</text>
</g>
<!-- NgswitchComponent&#45;&gt;DirectivasModule -->
<g id="edge26" class="edge">
<title>NgswitchComponent&#45;&gt;DirectivasModule</title>
<path fill="none" stroke="#000000" d="M2369,-122.0109C2369,-144.4852 2369,-180 2369,-180 2369,-180 2572.3149,-180 2572.3149,-180"/>
<polygon fill="#000000" stroke="#000000" points="2572.315,-183.5001 2582.3149,-180 2572.3149,-176.5001 2572.315,-183.5001"/>
</g>
<!-- DirectivasRoutingModule -->
<g id="node30" class="node">
<title>DirectivasRoutingModule</title>
<polygon fill="#8dd3c7" stroke="#000000" points="2278.1951,-122 2275.1951,-126 2254.1951,-126 2251.1951,-122 2115.8049,-122 2115.8049,-86 2278.1951,-86 2278.1951,-122"/>
<text text-anchor="middle" x="2197" y="-99.8" font-family="Times,serif" font-size="14.00" fill="#000000">DirectivasRoutingModule</text>
</g>
<!-- DirectivasRoutingModule&#45;&gt;DirectivasModule -->
<g id="edge27" class="edge">
<title>DirectivasRoutingModule&#45;&gt;DirectivasModule</title>
<path fill="none" stroke="#000000" d="M2197,-122.0263C2197,-146.9773 2197,-189 2197,-189 2197,-189 2572.0402,-189 2572.0402,-189"/>
<polygon fill="#000000" stroke="#000000" points="2572.0403,-192.5001 2582.0402,-189 2572.0402,-185.5001 2572.0403,-192.5001"/>
</g>
<!-- PersonComponent -->
<g id="node31" class="node">
<title>PersonComponent</title>
<polygon fill="#ffffb3" stroke="#000000" points="3984.9356,-122 3865.0644,-122 3865.0644,-86 3984.9356,-86 3984.9356,-122"/>
<text text-anchor="middle" x="3925" y="-99.8" font-family="Times,serif" font-size="14.00" fill="#000000">PersonComponent</text>
</g>
<!-- PersonModule -->
<g id="node34" class="node">
<title>PersonModule</title>
<polygon fill="#8dd3c7" stroke="#000000" points="3652.6528,-198 3649.6528,-202 3628.6528,-202 3625.6528,-198 3555.3472,-198 3555.3472,-162 3652.6528,-162 3652.6528,-198"/>
<text text-anchor="middle" x="3604" y="-175.8" font-family="Times,serif" font-size="14.00" fill="#000000">PersonModule</text>
</g>
<!-- PersonComponent&#45;&gt;PersonModule -->
<g id="edge28" class="edge">
<title>PersonComponent&#45;&gt;PersonModule</title>
<path fill="none" stroke="#000000" d="M3925,-122.1985C3925,-146.3563 3925,-186 3925,-186 3925,-186 3662.753,-186 3662.753,-186"/>
<polygon fill="#000000" stroke="#000000" points="3662.753,-182.5001 3652.753,-186 3662.753,-189.5001 3662.753,-182.5001"/>
</g>
<!-- PersonDetailComponent -->
<g id="node32" class="node">
<title>PersonDetailComponent</title>
<polygon fill="#ffffb3" stroke="#000000" points="3846.6428,-122 3693.3572,-122 3693.3572,-86 3846.6428,-86 3846.6428,-122"/>
<text text-anchor="middle" x="3770" y="-99.8" font-family="Times,serif" font-size="14.00" fill="#000000">PersonDetailComponent</text>
</g>
<!-- PersonDetailComponent&#45;&gt;PersonModule -->
<g id="edge29" class="edge">
<title>PersonDetailComponent&#45;&gt;PersonModule</title>
<path fill="none" stroke="#000000" d="M3770,-122.0267C3770,-142.7672 3770,-174 3770,-174 3770,-174 3662.9076,-174 3662.9076,-174"/>
<polygon fill="#000000" stroke="#000000" points="3662.9077,-170.5001 3652.9076,-174 3662.9076,-177.5001 3662.9077,-170.5001"/>
</g>
<!-- PersonInfoComponent -->
<g id="node33" class="node">
<title>PersonInfoComponent</title>
<polygon fill="#ffffb3" stroke="#000000" points="3675.2562,-122 3532.7438,-122 3532.7438,-86 3675.2562,-86 3675.2562,-122"/>
<text text-anchor="middle" x="3604" y="-99.8" font-family="Times,serif" font-size="14.00" fill="#000000">PersonInfoComponent</text>
</g>
<!-- PersonInfoComponent&#45;&gt;PersonModule -->
<g id="edge30" class="edge">
<title>PersonInfoComponent&#45;&gt;PersonModule</title>
<path fill="none" stroke="#000000" d="M3604,-122.0109C3604,-122.0109 3604,-151.855 3604,-151.855"/>
<polygon fill="#000000" stroke="#000000" points="3600.5001,-151.8549 3604,-161.855 3607.5001,-151.855 3600.5001,-151.8549"/>
</g>
<!-- PersonRoutingModule -->
<g id="node35" class="node">
<title>PersonRoutingModule</title>
<polygon fill="#8dd3c7" stroke="#000000" points="3509.2702,-122 3506.2702,-126 3485.2702,-126 3482.2702,-122 3366.7298,-122 3366.7298,-86 3509.2702,-86 3509.2702,-122"/>
<text text-anchor="middle" x="3438" y="-99.8" font-family="Times,serif" font-size="14.00" fill="#000000">PersonRoutingModule</text>
</g>
<!-- PersonRoutingModule&#45;&gt;PersonModule -->
<g id="edge31" class="edge">
<title>PersonRoutingModule&#45;&gt;PersonModule</title>
<path fill="none" stroke="#000000" d="M3438,-122.1686C3438,-141.0898 3438,-168 3438,-168 3438,-168 3545.0924,-168 3545.0924,-168"/>
<polygon fill="#000000" stroke="#000000" points="3545.0924,-171.5001 3555.0924,-168 3545.0923,-164.5001 3545.0924,-171.5001"/>
</g>
<!-- PersonService -->
<g id="node36" class="node">
<title>PersonService</title>
<ellipse fill="#fdb462" stroke="#000000" cx="3277" cy="-104" rx="66.0492" ry="18"/>
<text text-anchor="middle" x="3277" y="-99.8" font-family="Times,serif" font-size="14.00" fill="#000000">PersonService</text>
</g>
<!-- PersonService&#45;&gt;PersonModule -->
<g id="edge32" class="edge">
<title>PersonService&#45;&gt;PersonModule</title>
<path fill="none" stroke="#000000" d="M3277,-122.0267C3277,-142.7672 3277,-174 3277,-174 3277,-174 3545.0448,-174 3545.0448,-174"/>
<polygon fill="#000000" stroke="#000000" points="3545.0448,-177.5001 3555.0448,-174 3545.0448,-170.5001 3545.0448,-177.5001"/>
</g>
<!-- PipesComponent -->
<g id="node37" class="node">
<title>PipesComponent</title>
<polygon fill="#ffffb3" stroke="#000000" points="4136.6653,-122 4025.3347,-122 4025.3347,-86 4136.6653,-86 4136.6653,-122"/>
<text text-anchor="middle" x="4081" y="-99.8" font-family="Times,serif" font-size="14.00" fill="#000000">PipesComponent</text>
</g>
<!-- PipesModule -->
<g id="node38" class="node">
<title>PipesModule</title>
<polygon fill="#8dd3c7" stroke="#000000" points="4125.8823,-198 4122.8823,-202 4101.8823,-202 4098.8823,-198 4036.1177,-198 4036.1177,-162 4125.8823,-162 4125.8823,-198"/>
<text text-anchor="middle" x="4081" y="-175.8" font-family="Times,serif" font-size="14.00" fill="#000000">PipesModule</text>
</g>
<!-- PipesComponent&#45;&gt;PipesModule -->
<g id="edge33" class="edge">
<title>PipesComponent&#45;&gt;PipesModule</title>
<path fill="none" stroke="#000000" d="M4081,-122.0109C4081,-122.0109 4081,-151.855 4081,-151.855"/>
<polygon fill="#000000" stroke="#000000" points="4077.5001,-151.8549 4081,-161.855 4084.5001,-151.855 4077.5001,-151.8549"/>
</g>
<!-- CarsComponent -->
<g id="node39" class="node">
<title>CarsComponent</title>
<polygon fill="#ffffb3" stroke="#000000" points="4423.4888,-122 4316.5112,-122 4316.5112,-86 4423.4888,-86 4423.4888,-122"/>
<text text-anchor="middle" x="4370" y="-99.8" font-family="Times,serif" font-size="14.00" fill="#000000">CarsComponent</text>
</g>
<!-- SharedModule -->
<g id="node41" class="node">
<title>SharedModule</title>
<polygon fill="#8dd3c7" stroke="#000000" points="4290.4231,-198 4287.4231,-202 4266.4231,-202 4263.4231,-198 4191.5769,-198 4191.5769,-162 4290.4231,-162 4290.4231,-198"/>
<text text-anchor="middle" x="4241" y="-175.8" font-family="Times,serif" font-size="14.00" fill="#000000">SharedModule</text>
</g>
<!-- CarsComponent&#45;&gt;SharedModule -->
<g id="edge34" class="edge">
<title>CarsComponent&#45;&gt;SharedModule</title>
<path fill="none" stroke="#000000" d="M4352.3352,-122.0267C4352.3352,-142.7672 4352.3352,-174 4352.3352,-174 4352.3352,-174 4300.4816,-174 4300.4816,-174"/>
<polygon fill="#000000" stroke="#000000" points="4300.4816,-170.5001 4290.4816,-174 4300.4816,-177.5001 4300.4816,-170.5001"/>
</g>
<!-- MultiplicadorPipe -->
<g id="node40" class="node">
<title>MultiplicadorPipe</title>
<polygon fill="#ffffb3" stroke="#000000" points="4298.8753,-122 4181.1247,-122 4181.1247,-86 4298.8753,-86 4298.8753,-122"/>
<text text-anchor="middle" x="4240" y="-99.8" font-family="Times,serif" font-size="14.00" fill="#000000">MultiplicadorPipe</text>
</g>
<!-- MultiplicadorPipe&#45;&gt;SharedModule -->
<g id="edge35" class="edge">
<title>MultiplicadorPipe&#45;&gt;SharedModule</title>
<path fill="none" stroke="#000000" d="M4241,-122.0109C4241,-122.0109 4241,-151.855 4241,-151.855"/>
<polygon fill="#000000" stroke="#000000" points="4237.5001,-151.8549 4241,-161.855 4244.5001,-151.855 4237.5001,-151.8549"/>
</g>
<!-- CarsComponent  -->
<g id="node42" class="node">
<title>CarsComponent </title>
<polygon fill="#fb8072" stroke="#000000" points="4427.4899,-263 4316.5101,-263 4316.5101,-227 4427.4899,-227 4427.4899,-263"/>
<text text-anchor="middle" x="4372" y="-240.8" font-family="Times,serif" font-size="14.00" fill="#000000">CarsComponent </text>
</g>
<!-- SharedModule&#45;&gt;CarsComponent  -->
<g id="edge36" class="edge">
<title>SharedModule&#45;&gt;CarsComponent </title>
<path fill="none" stroke="#000000" stroke-dasharray="5,2" d="M4290.3292,-186C4333.0095,-186 4387.9148,-186 4387.9148,-186 4387.9148,-186 4387.9148,-216.9775 4387.9148,-216.9775"/>
<polygon fill="#000000" stroke="#000000" points="4384.4149,-216.9774 4387.9148,-226.9775 4391.4149,-216.9775 4384.4149,-216.9774"/>
</g>
<!-- MultiplicadorPipe  -->
<g id="node43" class="node">
<title>MultiplicadorPipe </title>
<polygon fill="#fb8072" stroke="#000000" points="4298.8758,-263 4177.1242,-263 4177.1242,-227 4298.8758,-227 4298.8758,-263"/>
<text text-anchor="middle" x="4238" y="-240.8" font-family="Times,serif" font-size="14.00" fill="#000000">MultiplicadorPipe </text>
</g>
<!-- SharedModule&#45;&gt;MultiplicadorPipe  -->
<g id="edge37" class="edge">
<title>SharedModule&#45;&gt;MultiplicadorPipe </title>
<path fill="none" stroke="#000000" stroke-dasharray="5,2" d="M4241,-198.1061C4241,-198.1061 4241,-216.991 4241,-216.991"/>
<polygon fill="#000000" stroke="#000000" points="4237.5001,-216.9909 4241,-226.991 4244.5001,-216.991 4237.5001,-216.9909"/>
</g>
</g>
</svg>
